<svg width="24" height="12" viewBox="0 0 24 12" fill="none" xmlns="http://www.w3.org/2000/svg">
<g clip-path="url(#clip0_379_1332)">
<path d="M0.632102 10V2.72727H5.44744V3.99503H2.16974V5.72798H5.12784V6.99574H2.16974V10H0.632102ZM7.96609 2.72727V10H6.4533V2.72727H7.96609ZM10.7333 10.103C10.3853 10.103 10.0752 10.0426 9.80291 9.92188C9.53066 9.79877 9.31522 9.61766 9.15661 9.37855C9.00036 9.13707 8.92223 8.83641 8.92223 8.47656C8.92223 8.17353 8.97786 7.91903 9.08913 7.71307C9.2004 7.5071 9.35192 7.34138 9.54368 7.21591C9.73544 7.09044 9.95324 6.99574 10.1971 6.93182C10.4433 6.8679 10.7013 6.82292 10.9712 6.79688C11.2885 6.76373 11.5442 6.73295 11.7383 6.70455C11.9324 6.67377 12.0733 6.62879 12.1609 6.5696C12.2485 6.51042 12.2923 6.42282 12.2923 6.30682V6.28551C12.2923 6.06061 12.2212 5.8866 12.0792 5.76349C11.9395 5.64039 11.7406 5.57884 11.4826 5.57884C11.2103 5.57884 10.9937 5.6392 10.8327 5.75994C10.6718 5.87831 10.5652 6.02746 10.5131 6.20739L9.11399 6.09375C9.18501 5.76231 9.32469 5.47585 9.53303 5.23438C9.74136 4.99053 10.0101 4.8035 10.3391 4.6733C10.6706 4.54072 11.0541 4.47443 11.4897 4.47443C11.7927 4.47443 12.0827 4.50994 12.3597 4.58097C12.6391 4.65199 12.8865 4.76207 13.1019 4.91122C13.3197 5.06037 13.4914 5.25213 13.6168 5.48651C13.7423 5.71851 13.805 5.99669 13.805 6.32102V10H12.3704V9.24361H12.3278C12.2402 9.41406 12.123 9.56439 11.9762 9.6946C11.8294 9.82244 11.6531 9.92306 11.4471 9.99645C11.2411 10.0675 11.0032 10.103 10.7333 10.103ZM11.1665 9.05895C11.3891 9.05895 11.5856 9.01515 11.756 8.92756C11.9265 8.83759 12.0603 8.71686 12.1573 8.56534C12.2544 8.41383 12.3029 8.24219 12.3029 8.05043V7.47159C12.2556 7.50237 12.1905 7.53078 12.1076 7.55682C12.0271 7.58049 11.936 7.60298 11.8342 7.62429C11.7324 7.64323 11.6306 7.66098 11.5288 7.67756C11.427 7.69176 11.3346 7.70478 11.2518 7.71662C11.0742 7.74266 10.9192 7.78409 10.7866 7.84091C10.654 7.89773 10.551 7.97467 10.4776 8.07173C10.4042 8.16643 10.3675 8.2848 10.3675 8.42685C10.3675 8.63281 10.4421 8.79025 10.5913 8.89915C10.7428 9.00568 10.9345 9.05895 11.1665 9.05895ZM14.9787 10V4.54545H16.4915V10H14.9787ZM15.7386 3.84233C15.5137 3.84233 15.3208 3.76776 15.1598 3.61861C15.0012 3.46709 14.9219 3.28598 14.9219 3.07528C14.9219 2.86695 15.0012 2.68821 15.1598 2.53906C15.3208 2.38755 15.5137 2.31179 15.7386 2.31179C15.9635 2.31179 16.1553 2.38755 16.3139 2.53906C16.4749 2.68821 16.5554 2.86695 16.5554 3.07528C16.5554 3.28598 16.4749 3.46709 16.3139 3.61861C16.1553 3.76776 15.9635 3.84233 15.7386 3.84233ZM17.7033 10V4.54545H19.1699V5.49716H19.2267C19.3262 5.15862 19.4931 4.90294 19.7275 4.73011C19.9618 4.55492 20.2317 4.46733 20.5371 4.46733C20.6129 4.46733 20.6945 4.47206 20.7821 4.48153C20.8697 4.491 20.9467 4.50402 21.013 4.5206V5.86293C20.9419 5.84162 20.8437 5.82268 20.7182 5.80611C20.5927 5.78954 20.4779 5.78125 20.3738 5.78125C20.1512 5.78125 19.9524 5.82978 19.7772 5.92685C19.6043 6.02154 19.467 6.15412 19.3652 6.32457C19.2658 6.49503 19.2161 6.69152 19.2161 6.91406V10H17.7033Z" fill="white"/>
<path d="M22.0543 10.0923C21.82 10.0923 21.6187 10.0095 21.4506 9.84375C21.2849 9.67566 21.2021 9.47443 21.2021 9.24006C21.2021 9.00805 21.2849 8.80919 21.4506 8.64347C21.6187 8.47775 21.82 8.39489 22.0543 8.39489C22.2816 8.39489 22.4805 8.47775 22.6509 8.64347C22.8214 8.80919 22.9066 9.00805 22.9066 9.24006C22.9066 9.39631 22.8664 9.53954 22.7859 9.66974C22.7077 9.79759 22.6048 9.90057 22.4769 9.97869C22.3491 10.0545 22.2082 10.0923 22.0543 10.0923Z" fill="#6299F4"/>
</g>
<defs>
<clipPath id="clip0_379_1332">
<rect width="24" height="12" fill="white"/>
</clipPath>
</defs>
</svg>
