<svg width="532" height="108" viewBox="0 0 532 108" fill="none" xmlns="http://www.w3.org/2000/svg">
<path d="M97.0654 9.16902C86.1232 -1.7661 68.3794 -1.7661 57.4443 9.16902L41.8135 24.7998C43.0515 24.6646 44.2965 24.6077 45.5558 24.6077C49.5115 24.6077 53.3605 25.2337 57.0032 26.4432L65.8608 17.5927C68.8987 14.5405 72.9469 12.8686 77.2513 12.8686C81.5556 12.8686 85.5967 14.5405 88.6417 17.5927C91.6868 20.6306 93.3587 24.6717 93.3587 28.976C93.3587 33.2803 91.6868 37.3285 88.6417 40.3665L71.3106 57.6976C68.2655 60.7426 64.2245 62.4146 59.9201 62.4146C55.6087 62.4146 51.5676 60.7426 48.5226 57.6976C47.0427 56.2249 45.8902 54.5031 45.0933 52.632C43.1226 52.7387 41.2728 53.564 39.8641 54.9727L35.2468 59.5972C36.506 61.9379 38.1282 64.1434 40.106 66.1213C51.0483 77.0635 68.7849 77.0635 79.7271 66.1213L97.0654 48.783C108 37.8479 108 20.1112 97.0654 9.16902Z" fill="#004AAD"/>
<path d="M60.1051 82.3781C56.1423 82.3781 52.2577 81.7378 48.5297 80.4714L39.6151 89.3931C36.5701 92.4381 32.529 94.1101 28.2247 94.1101C23.9203 94.1101 19.8793 92.4381 16.8342 89.3931C13.7892 86.3552 12.1173 82.307 12.1173 78.0026C12.1173 73.7054 13.7892 69.6572 16.8342 66.6122L34.1653 49.2811C37.2104 46.2431 41.2515 44.5641 45.5558 44.5641C49.8672 44.5641 53.9012 46.2431 56.9462 49.2811C58.4261 50.7609 59.5858 52.4755 60.3826 54.3538C62.3676 54.247 64.2173 53.4218 65.626 52.0131L70.2363 47.3957C68.9699 45.0479 67.3478 42.8424 65.3699 40.8574C54.4277 29.9223 36.691 29.9223 25.7488 40.8574L8.41767 58.1956C-2.52456 69.1379 -2.52456 86.8745 8.41767 97.8168C19.3599 108.759 37.0894 108.759 48.0317 97.8168L63.6411 82.2145C62.4743 82.3212 61.3004 82.3781 60.1122 82.3781H60.1051Z" fill="#004AAD"/>
<path d="M140.353 25.1448C144.828 25.1448 148.649 25.9701 151.822 27.6207C155.009 29.257 157.414 31.5479 159.05 34.5076C160.68 37.453 161.498 40.8751 161.498 44.781C161.498 48.694 160.68 52.1162 159.05 55.0545C157.414 57.9786 155.009 60.2624 151.822 61.9129C148.649 63.5493 144.828 64.3604 140.353 64.3604H128.571V87.6677H116.192V25.1448H140.353ZM138.731 54.5707C145.597 54.5707 149.033 51.3122 149.033 44.781C149.033 38.2214 145.597 34.9344 138.731 34.9344H128.571V54.5707H138.731Z" fill="black"/>
<path d="M171.999 87.6678V40.5123H183.496V47.513L184.407 47.6838C185.545 45.0656 187.032 43.1518 188.875 41.9352C190.732 40.7044 192.987 40.0854 195.648 40.0854C198.323 40.0854 200.358 40.5408 201.767 41.4514L199.746 51.668L198.836 51.8387C198.074 51.5186 197.334 51.2909 196.616 51.1557C195.911 51.0063 195.051 50.928 194.026 50.928C190.704 50.928 188.171 52.0948 186.428 54.4284C184.699 56.7478 183.838 60.4758 183.838 65.6125V87.6678H171.999Z" fill="black"/>
<path d="M229.583 88.5784C224.973 88.5784 220.918 87.6322 217.432 85.7326C213.939 83.8401 211.228 81.0583 209.293 77.3943C207.372 73.7374 206.418 69.305 206.418 64.1042C206.418 58.9248 207.372 54.4996 209.293 50.8142C211.228 47.136 213.939 44.3471 217.432 42.4475C220.918 40.555 224.973 39.6016 229.583 39.6016C234.194 39.6016 238.242 40.555 241.735 42.4475C245.243 44.3471 247.968 47.136 249.903 50.8142C251.838 54.4996 252.805 58.9248 252.805 64.1042C252.805 69.305 251.838 73.7374 249.903 77.3943C247.968 81.0583 245.243 83.8401 241.735 85.7326C238.242 87.6322 234.194 88.5784 229.583 88.5784ZM229.583 78.5042C236.904 78.5042 240.568 73.7089 240.568 64.1042C240.568 59.1169 239.629 55.4671 237.751 53.1478C235.873 50.8142 233.148 49.6474 229.583 49.6474C222.255 49.6474 218.599 54.4711 218.599 64.1042C218.599 73.7089 222.255 78.5042 229.583 78.5042Z" fill="black"/>
<path d="M270.276 87.6678H257.811L271.272 63.222L258.523 40.5123H271.187L279.354 56.0221H280.322L288.546 40.5123H300.812L288.461 63.222L301.552 87.6678H288.916L280.037 70.4505H279.041L270.276 87.6678Z" fill="black"/>
<path d="M312.79 107.674C310.755 107.674 308.919 107.51 307.269 107.19C305.632 106.884 304.309 106.479 303.285 105.966L305.163 96.376L305.931 96.1199C306.65 96.497 307.532 96.8029 308.578 97.0305C309.638 97.2582 310.727 97.372 311.851 97.372C313.743 97.372 315.33 97.1159 316.603 96.6037C317.87 96.1057 318.944 95.2804 319.819 94.1278C320.708 92.9895 321.498 91.3958 322.181 89.3468L303.37 40.5123H315.778L327.474 73.2963H328.499L339.939 40.5123H351.977L333.052 90.6274C331.53 94.6685 329.865 97.9199 328.043 100.389C326.236 102.85 324.102 104.686 321.64 105.881C319.172 107.076 316.219 107.674 312.79 107.674Z" fill="black"/>
<path d="M373.454 25.1448V77.3089H401.542V87.6677H361.074V25.1448H373.454Z" fill="black"/>
<path d="M416.274 34.8491C414.147 34.8491 412.411 34.2088 411.066 32.9139C409.715 31.6262 409.046 29.9543 409.046 27.9053C409.046 25.8776 409.715 24.2199 411.066 22.9251C412.411 21.616 414.147 20.9614 416.274 20.9614C417.697 20.9614 418.964 21.2674 420.088 21.8721C421.205 22.4626 422.066 23.2808 422.677 24.3195C423.282 25.3654 423.588 26.5606 423.588 27.9053C423.588 29.2357 423.282 30.4309 422.677 31.491C422.066 32.5369 421.205 33.3621 420.088 33.9669C418.964 34.5574 417.697 34.8491 416.274 34.8491ZM410.383 87.6678V40.5123H422.222V87.6678H410.383Z" fill="black"/>
<path d="M435.778 87.6677V40.5123H447.161V47.4277L448.043 47.6553C450.982 42.2909 455.741 39.6016 462.33 39.6016C467.772 39.6016 471.764 41.0957 474.311 44.0696C476.872 47.0292 478.152 51.3478 478.152 57.0181V87.6677H466.314V58.4695C466.314 55.3391 465.673 53.0838 464.407 51.6964C463.155 50.3162 461.149 49.619 458.402 49.619C455.002 49.619 452.355 50.7217 450.462 52.9201C448.563 55.1043 447.617 58.5478 447.617 63.2505V87.6677H435.778Z" fill="black"/>
<path d="M491.013 87.6678V21.5591H502.852V58.2418H504.019L517.65 40.5123H529.66V41.4799L513.638 62.1976L531.453 86.5863V87.6678H518.959L504.019 67.7754H502.852V87.6678H491.013Z" fill="black"/>
</svg>
